<svg xmlns="http://www.w3.org/2000/svg" width="123" height="39" viewBox="-61.900001525878906 -21.920000076293945 122.9900016784668 38.80000019073486">
          <g fill="#000000"><path d="M-37.78 -14.35L-44.26 14.35L-53.33 14.35L-59.9 -14.35L-52.75 -14.35L-49.97 0.91Q-49.82 1.78 -49.51 2.35Q-49.2 2.93 -48.72 2.93Q-47.9 2.93 -47.52 0.91L-44.93 -14.35Z"/><path d="M-27.94 -0.77Q-27.31 1.3 -25.87 2.59Q-24.43 3.89 -21.89 3.89Q-21.12 3.89 -20.23 3.77Q-19.34 3.65 -18.48 3.43Q-17.62 3.22 -16.85 2.95Q-16.08 2.69 -15.5 2.45Q-15.41 3.84 -15.38 5.4Q-15.36 6.96 -15.36 8.5Q-15.36 11.04 -15.5 13.06Q-19.25 14.88 -23.9 14.88Q-26.06 14.88 -28.27 14.4Q-30.48 13.92 -32.54 12.58Q-34.37 11.38 -35.54 9.77Q-36.72 8.16 -37.39 6.46Q-38.06 4.75 -38.3 3.12Q-38.54 1.49 -38.54 0.19Q-38.54 -1.73 -38.09 -3.82Q-37.63 -5.9 -36.67 -7.8Q-35.71 -9.7 -34.22 -11.28Q-32.74 -12.86 -30.72 -13.78Q-28.27 -14.88 -25.54 -14.88Q-22.66 -14.88 -20.35 -13.73Q-18.05 -12.58 -16.61 -10.56Q-15.22 -8.64 -14.86 -6.29Q-14.5 -3.94 -14.5 -0.77ZM-25.2 -9.7Q-26.21 -9.7 -27.12 -8.86Q-28.03 -8.02 -28.32 -5.9L-22.03 -5.9Q-22.22 -7.82 -23.16 -8.76Q-24.1 -9.7 -25.2 -9.7Z"/><path d="M-3.6 4.99Q-3.74 4.99 -3.96 5.35Q-4.18 5.71 -4.44 6.31Q-4.7 6.91 -4.99 7.68Q-5.28 8.45 -5.57 9.22L-7.49 14.35L-14.83 14.35L-8.54 -0.05L-14.74 -14.35L-7.49 -14.35L-5.66 -9.31Q-5.38 -8.5 -5.09 -7.7Q-4.8 -6.91 -4.54 -6.29Q-4.27 -5.66 -4.03 -5.3Q-3.79 -4.94 -3.6 -4.94Q-3.41 -4.94 -3.17 -5.3Q-2.93 -5.66 -2.66 -6.29Q-2.4 -6.91 -2.11 -7.7Q-1.82 -8.5 -1.54 -9.31L0.24 -14.35L7.54 -14.35L1.34 -0.05L7.63 14.35L0.29 14.35L-1.63 9.22Q-1.92 8.45 -2.21 7.68Q-2.5 6.91 -2.76 6.31Q-3.02 5.71 -3.24 5.35Q-3.46 4.99 -3.6 4.99Z"/><path d="M10.75 -19.92L17.33 -19.92L17.33 -14.35L21.02 -14.35L21.02 -1.58L17.23 -1.58L17.23 5.14Q17.23 7.1 17.57 7.75Q17.9 8.4 19.1 8.4Q19.44 8.4 20.02 8.35Q20.59 8.3 20.88 8.21Q20.98 8.54 20.98 9.58Q20.98 10.61 20.98 11.66Q20.98 12.58 20.98 13.32Q20.98 14.06 20.93 14.35Q20.35 14.45 19.66 14.52Q18.96 14.59 18.31 14.64Q17.66 14.69 17.11 14.71Q16.56 14.74 16.22 14.74Q14.5 14.74 13.39 14.06Q12.29 13.39 11.66 12.26Q11.04 11.14 10.8 9.72Q10.56 8.3 10.56 6.82Q10.56 6.24 10.58 5.11Q10.61 3.98 10.63 2.74Q10.66 1.49 10.7 0.31Q10.75 -0.86 10.75 -1.58L7.87 -1.58L7.87 -14.35L10.75 -14.35Z"/><path d="M33.22 -14.88Q39.07 -14.88 41.59 -11.04Q44.11 -7.2 44.11 0Q44.11 7.25 41.59 11.06Q39.07 14.88 33.22 14.88Q27.31 14.88 24.79 11.06Q22.27 7.25 22.27 0Q22.27 -7.2 24.79 -11.04Q27.31 -14.88 33.22 -14.88ZM33.22 3.6Q34.18 3.6 34.92 3.22Q35.66 2.83 36.14 2.21Q36.62 1.58 36.86 0.79Q37.1 0 37.1 -0.86Q37.1 -1.73 36.86 -2.54Q36.62 -3.36 36.14 -3.98Q35.66 -4.61 34.92 -4.99Q34.18 -5.38 33.22 -5.38Q31.25 -5.38 30.26 -3.98Q29.28 -2.59 29.28 -0.86Q29.28 0 29.52 0.79Q29.76 1.58 30.26 2.21Q30.77 2.83 31.49 3.22Q32.21 3.6 33.22 3.6Z"/><path d="M51.98 -14.35L52.32 -10.7Q52.9 -11.62 53.71 -12.38Q54.53 -13.15 55.42 -13.7Q56.3 -14.26 57.19 -14.57Q58.08 -14.88 58.85 -14.88Q58.94 -13.63 59.02 -12.02Q59.09 -10.42 59.09 -8.74Q59.09 -6.82 59.02 -4.94Q58.94 -3.07 58.85 -1.49Q58.42 -1.68 57.65 -1.78Q56.88 -1.87 56.35 -1.87Q54.58 -1.87 53.74 -1.03Q52.9 -0.19 52.9 1.06L52.9 14.35L45.84 14.35Q45.89 6.58 45.91 -0.41Q45.94 -7.39 45.94 -14.35Z"/></g>
        </svg>